<svg width="32" height="32" viewBox="0 0 32 32" fill="none" xmlns="http://www.w3.org/2000/svg">
  <defs>
    <clipPath id="hex-clip">
      <path d="M14 2.2 Q16 1 18 2.2 L27 7.4 Q29 8.5 29 10.8 V21.2 Q29 23.5 27 24.6 L18 29.8 Q16 31 14 29.8 L5 24.6 Q3 23.5 3 21.2 V10.8 Q3 8.5 5 7.4 Z"></path>
    </clipPath>
  </defs>
  <path d="M14 2.2 Q16 1 18 2.2 L27 7.4 Q29 8.5 29 10.8 V21.2 Q29 23.5 27 24.6 L18 29.8 Q16 31 14 29.8 L5 24.6 Q3 23.5 3 21.2 V10.8 Q3 8.5 5 7.4 Z" fill="#2950E3"></path>
  <g clip-path="url(#hex-clip)">
    <circle cx="16" cy="12" r="3" fill="#FFFFFF"></circle>
    <path d="M10 23 C10 19 12.5 16.5 16 16.5 C19.5 16.5 22 19 22 23 Z" fill="#FFFFFF"></path>
  </g>
</svg>